<mxfile host="65bd71144e">
    <diagram id="0oYXIhAwGNWbaCItx-TK" name="Page-1">
        <mxGraphModel dx="683" dy="372" grid="1" gridSize="10" guides="1" tooltips="1" connect="1" arrows="1" fold="1" page="1" pageScale="1" pageWidth="850" pageHeight="1100" math="0" shadow="0">
            <root>
                <mxCell id="0"/>
                <mxCell id="1" parent="0"/>
                <mxCell id="22" value="" style="edgeStyle=none;html=1;" edge="1" parent="1" source="2">
                    <mxGeometry relative="1" as="geometry">
                        <mxPoint x="250" y="60" as="targetPoint"/>
                    </mxGeometry>
                </mxCell>
                <mxCell id="2" value="User&lt;div&gt;&lt;br&gt;&lt;/div&gt;" style="shape=umlActor;verticalLabelPosition=bottom;verticalAlign=top;html=1;outlineConnect=0;" vertex="1" parent="1">
                    <mxGeometry x="100" y="120" width="20" height="60" as="geometry"/>
                </mxCell>
                <mxCell id="3" value="Admin&lt;div&gt;&lt;br&gt;&lt;/div&gt;" style="shape=umlActor;verticalLabelPosition=bottom;verticalAlign=top;html=1;outlineConnect=0;" vertex="1" parent="1">
                    <mxGeometry x="90" y="450" width="30" height="60" as="geometry"/>
                </mxCell>
                <mxCell id="8" value="&lt;div&gt;Save Listings&lt;/div&gt;" style="ellipse;whiteSpace=wrap;html=1;" vertex="1" parent="1">
                    <mxGeometry x="260" y="210" width="180" height="50" as="geometry"/>
                </mxCell>
                <mxCell id="10" value="View Listings&lt;div&gt;&lt;br&gt;&lt;/div&gt;" style="ellipse;whiteSpace=wrap;html=1;" vertex="1" parent="1">
                    <mxGeometry x="260" y="150" width="180" height="50" as="geometry"/>
                </mxCell>
                <mxCell id="11" value="&lt;div&gt;Log in&lt;/div&gt;" style="ellipse;whiteSpace=wrap;html=1;" vertex="1" parent="1">
                    <mxGeometry x="260" y="30" width="180" height="50" as="geometry"/>
                </mxCell>
                <mxCell id="12" value="&lt;div&gt;Create Listing&lt;/div&gt;&lt;div&gt;&lt;br&gt;&lt;/div&gt;" style="ellipse;whiteSpace=wrap;html=1;" vertex="1" parent="1">
                    <mxGeometry x="260" y="90" width="180" height="50" as="geometry"/>
                </mxCell>
                <mxCell id="13" value="Fill out Pet-Questionaire" style="ellipse;whiteSpace=wrap;html=1;" vertex="1" parent="1">
                    <mxGeometry x="260" y="270" width="180" height="50" as="geometry"/>
                </mxCell>
                <mxCell id="14" value="Search Listings by filter&lt;div&gt;&lt;br&gt;&lt;/div&gt;" style="ellipse;whiteSpace=wrap;html=1;" vertex="1" parent="1">
                    <mxGeometry x="260" y="330" width="180" height="50" as="geometry"/>
                </mxCell>
                <mxCell id="20" value="Update account info&lt;div&gt;&lt;br&gt;&lt;/div&gt;" style="ellipse;whiteSpace=wrap;html=1;" vertex="1" parent="1">
                    <mxGeometry x="260" y="390" width="180" height="50" as="geometry"/>
                </mxCell>
                <mxCell id="23" value="" style="edgeStyle=none;html=1;" edge="1" parent="1">
                    <mxGeometry relative="1" as="geometry">
                        <mxPoint x="130" y="154" as="sourcePoint"/>
                        <mxPoint x="250" y="110" as="targetPoint"/>
                    </mxGeometry>
                </mxCell>
                <mxCell id="24" value="" style="edgeStyle=none;html=1;" edge="1" parent="1">
                    <mxGeometry relative="1" as="geometry">
                        <mxPoint x="140" y="164" as="sourcePoint"/>
                        <mxPoint x="250" y="170" as="targetPoint"/>
                    </mxGeometry>
                </mxCell>
                <mxCell id="25" value="" style="edgeStyle=none;html=1;" edge="1" parent="1">
                    <mxGeometry relative="1" as="geometry">
                        <mxPoint x="140" y="180" as="sourcePoint"/>
                        <mxPoint x="230" y="280" as="targetPoint"/>
                    </mxGeometry>
                </mxCell>
                <mxCell id="26" value="" style="edgeStyle=none;html=1;" edge="1" parent="1">
                    <mxGeometry relative="1" as="geometry">
                        <mxPoint x="150" y="174" as="sourcePoint"/>
                        <mxPoint x="250" y="230" as="targetPoint"/>
                    </mxGeometry>
                </mxCell>
                <mxCell id="27" value="" style="edgeStyle=none;html=1;" edge="1" parent="1">
                    <mxGeometry relative="1" as="geometry">
                        <mxPoint x="140" y="210" as="sourcePoint"/>
                        <mxPoint x="250" y="350" as="targetPoint"/>
                    </mxGeometry>
                </mxCell>
                <mxCell id="28" value="" style="edgeStyle=none;html=1;" edge="1" parent="1">
                    <mxGeometry relative="1" as="geometry">
                        <mxPoint x="120" y="220" as="sourcePoint"/>
                        <mxPoint x="220" y="390" as="targetPoint"/>
                    </mxGeometry>
                </mxCell>
                <mxCell id="29" value="Approve questionnaire" style="ellipse;whiteSpace=wrap;html=1;" vertex="1" parent="1">
                    <mxGeometry x="270" y="460" width="180" height="50" as="geometry"/>
                </mxCell>
                <mxCell id="30" value="Notify user if their application was accepted" style="ellipse;whiteSpace=wrap;html=1;" vertex="1" parent="1">
                    <mxGeometry x="270" y="525" width="180" height="50" as="geometry"/>
                </mxCell>
                <mxCell id="31" value="Manage pet listings/profiles" style="ellipse;whiteSpace=wrap;html=1;" vertex="1" parent="1">
                    <mxGeometry x="270" y="590" width="180" height="50" as="geometry"/>
                </mxCell>
                <mxCell id="32" value="" style="edgeStyle=none;html=1;" edge="1" parent="1">
                    <mxGeometry relative="1" as="geometry">
                        <mxPoint x="140" y="530" as="sourcePoint"/>
                        <mxPoint x="250" y="610" as="targetPoint"/>
                    </mxGeometry>
                </mxCell>
                <mxCell id="33" value="" style="edgeStyle=none;html=1;" edge="1" parent="1">
                    <mxGeometry relative="1" as="geometry">
                        <mxPoint x="140" y="470" as="sourcePoint"/>
                        <mxPoint x="260" y="480" as="targetPoint"/>
                    </mxGeometry>
                </mxCell>
                <mxCell id="34" value="" style="edgeStyle=none;html=1;" edge="1" parent="1">
                    <mxGeometry relative="1" as="geometry">
                        <mxPoint x="150" y="510" as="sourcePoint"/>
                        <mxPoint x="250" y="540" as="targetPoint"/>
                    </mxGeometry>
                </mxCell>
            </root>
        </mxGraphModel>
    </diagram>
</mxfile>